<mxfile host="app.diagrams.net" agent="Mozilla/5.0 (Windows NT 10.0; Win64; x64) AppleWebKit/537.36 (KHTML, like Gecko) Chrome/128.0.0.0 Safari/537.36 Edg/128.0.0.0" version="24.7.7">
  <diagram id="C5RBs43oDa-KdzZeNtuy" name="Page-1">
    <mxGraphModel dx="794" dy="501" grid="1" gridSize="10" guides="1" tooltips="1" connect="1" arrows="1" fold="1" page="1" pageScale="1" pageWidth="827" pageHeight="1169" math="0" shadow="0">
      <root>
        <mxCell id="WIyWlLk6GJQsqaUBKTNV-0" />
        <mxCell id="WIyWlLk6GJQsqaUBKTNV-1" parent="WIyWlLk6GJQsqaUBKTNV-0" />
        <mxCell id="hRpk45rN5Gz6pGNk-lLG-12" style="edgeStyle=orthogonalEdgeStyle;rounded=0;orthogonalLoop=1;jettySize=auto;html=1;exitX=1;exitY=0.75;exitDx=0;exitDy=0;entryX=0;entryY=0.75;entryDx=0;entryDy=0;" edge="1" parent="WIyWlLk6GJQsqaUBKTNV-1" source="hRpk45rN5Gz6pGNk-lLG-0" target="hRpk45rN5Gz6pGNk-lLG-1">
          <mxGeometry relative="1" as="geometry" />
        </mxCell>
        <mxCell id="hRpk45rN5Gz6pGNk-lLG-0" value="" style="shape=actor;whiteSpace=wrap;html=1;" vertex="1" parent="WIyWlLk6GJQsqaUBKTNV-1">
          <mxGeometry x="30" y="10" width="40" height="60" as="geometry" />
        </mxCell>
        <mxCell id="hRpk45rN5Gz6pGNk-lLG-17" style="edgeStyle=orthogonalEdgeStyle;rounded=0;orthogonalLoop=1;jettySize=auto;html=1;exitX=1;exitY=0.5;exitDx=0;exitDy=0;entryX=0.5;entryY=0;entryDx=0;entryDy=0;" edge="1" parent="WIyWlLk6GJQsqaUBKTNV-1" source="hRpk45rN5Gz6pGNk-lLG-1" target="hRpk45rN5Gz6pGNk-lLG-11">
          <mxGeometry relative="1" as="geometry" />
        </mxCell>
        <mxCell id="hRpk45rN5Gz6pGNk-lLG-1" value="Central Gateway Proxy" style="rounded=1;whiteSpace=wrap;html=1;fillColor=#fff2cc;strokeColor=#d6b656;" vertex="1" parent="WIyWlLk6GJQsqaUBKTNV-1">
          <mxGeometry x="170" y="10" width="120" height="60" as="geometry" />
        </mxCell>
        <mxCell id="hRpk45rN5Gz6pGNk-lLG-20" style="edgeStyle=orthogonalEdgeStyle;rounded=0;orthogonalLoop=1;jettySize=auto;html=1;" edge="1" parent="WIyWlLk6GJQsqaUBKTNV-1" source="hRpk45rN5Gz6pGNk-lLG-2">
          <mxGeometry relative="1" as="geometry">
            <mxPoint x="300" y="300" as="targetPoint" />
          </mxGeometry>
        </mxCell>
        <mxCell id="hRpk45rN5Gz6pGNk-lLG-2" value="" style="rounded=1;whiteSpace=wrap;html=1;direction=south;labelPosition=center;verticalLabelPosition=top;align=center;verticalAlign=bottom;rotation=-90;" vertex="1" parent="WIyWlLk6GJQsqaUBKTNV-1">
          <mxGeometry x="240" y="-70" width="120" height="500" as="geometry" />
        </mxCell>
        <mxCell id="hRpk45rN5Gz6pGNk-lLG-3" value="Authentication" style="rounded=1;whiteSpace=wrap;html=1;fillColor=#dae8fc;strokeColor=#6c8ebf;" vertex="1" parent="WIyWlLk6GJQsqaUBKTNV-1">
          <mxGeometry x="90" y="160" width="80" height="60" as="geometry" />
        </mxCell>
        <mxCell id="hRpk45rN5Gz6pGNk-lLG-4" value="Authorization" style="rounded=1;whiteSpace=wrap;html=1;fillColor=#dae8fc;strokeColor=#6c8ebf;" vertex="1" parent="WIyWlLk6GJQsqaUBKTNV-1">
          <mxGeometry x="200" y="160" width="80" height="60" as="geometry" />
        </mxCell>
        <mxCell id="hRpk45rN5Gz6pGNk-lLG-5" value="Logging and Monitoring" style="rounded=1;whiteSpace=wrap;html=1;fillColor=#dae8fc;strokeColor=#6c8ebf;" vertex="1" parent="WIyWlLk6GJQsqaUBKTNV-1">
          <mxGeometry x="310" y="160" width="80" height="60" as="geometry" />
        </mxCell>
        <mxCell id="hRpk45rN5Gz6pGNk-lLG-6" value="SSL termination" style="rounded=1;whiteSpace=wrap;html=1;fillColor=#dae8fc;strokeColor=#6c8ebf;" vertex="1" parent="WIyWlLk6GJQsqaUBKTNV-1">
          <mxGeometry x="430" y="160" width="80" height="60" as="geometry" />
        </mxCell>
        <mxCell id="hRpk45rN5Gz6pGNk-lLG-10" value="&lt;font style=&quot;font-size: 11px;&quot;&gt;Offloaded services&lt;/font&gt;" style="strokeWidth=1;shadow=0;dashed=0;align=center;html=1;shape=mxgraph.mockup.text.textBox;fontColor=#666666;align=left;fontSize=17;spacingLeft=4;spacingTop=-3;whiteSpace=wrap;strokeColor=#666666;mainText=" vertex="1" parent="WIyWlLk6GJQsqaUBKTNV-1">
          <mxGeometry x="70" y="120" width="100" height="30" as="geometry" />
        </mxCell>
        <mxCell id="hRpk45rN5Gz6pGNk-lLG-11" value="Backend Services" style="rounded=1;whiteSpace=wrap;html=1;fillColor=#dae8fc;strokeColor=#6c8ebf;" vertex="1" parent="WIyWlLk6GJQsqaUBKTNV-1">
          <mxGeometry x="670" y="130" width="110" height="60" as="geometry" />
        </mxCell>
        <mxCell id="hRpk45rN5Gz6pGNk-lLG-16" value="Client" style="strokeWidth=1;shadow=0;dashed=0;align=center;html=1;shape=mxgraph.mockup.text.textBox;fontColor=#666666;align=left;fontSize=11;spacingLeft=4;spacingTop=-3;whiteSpace=wrap;strokeColor=#666666;mainText=" vertex="1" parent="WIyWlLk6GJQsqaUBKTNV-1">
          <mxGeometry x="30" y="80" width="50" height="20" as="geometry" />
        </mxCell>
        <mxCell id="hRpk45rN5Gz6pGNk-lLG-18" style="edgeStyle=orthogonalEdgeStyle;rounded=0;orthogonalLoop=1;jettySize=auto;html=1;entryX=0.36;entryY=0;entryDx=0;entryDy=0;entryPerimeter=0;" edge="1" parent="WIyWlLk6GJQsqaUBKTNV-1" source="hRpk45rN5Gz6pGNk-lLG-1" target="hRpk45rN5Gz6pGNk-lLG-2">
          <mxGeometry relative="1" as="geometry" />
        </mxCell>
        <mxCell id="hRpk45rN5Gz6pGNk-lLG-23" style="edgeStyle=orthogonalEdgeStyle;rounded=0;orthogonalLoop=1;jettySize=auto;html=1;entryX=0;entryY=0.5;entryDx=0;entryDy=0;" edge="1" parent="WIyWlLk6GJQsqaUBKTNV-1" source="hRpk45rN5Gz6pGNk-lLG-19" target="hRpk45rN5Gz6pGNk-lLG-21">
          <mxGeometry relative="1" as="geometry" />
        </mxCell>
        <mxCell id="hRpk45rN5Gz6pGNk-lLG-19" value="Load Balancer" style="rounded=1;whiteSpace=wrap;html=1;fillColor=#fff2cc;strokeColor=#d6b656;" vertex="1" parent="WIyWlLk6GJQsqaUBKTNV-1">
          <mxGeometry x="240" y="300" width="120" height="60" as="geometry" />
        </mxCell>
        <mxCell id="hRpk45rN5Gz6pGNk-lLG-21" value="Communication Channels" style="rounded=1;whiteSpace=wrap;html=1;fillColor=#fff2cc;strokeColor=#d6b656;" vertex="1" parent="WIyWlLk6GJQsqaUBKTNV-1">
          <mxGeometry x="414" y="300" width="120" height="60" as="geometry" />
        </mxCell>
      </root>
    </mxGraphModel>
  </diagram>
</mxfile>
